<svg width="32" height="32" viewBox="0 0 32 32" fill="none" xmlns="http://www.w3.org/2000/svg">
  <defs>
    <linearGradient id="gradient" x1="0%" y1="0%" x2="100%" y2="100%">
      <stop offset="0%" style="stop-color:hsl(195, 45%, 55%);stop-opacity:1" />
      <stop offset="70%" style="stop-color:hsl(195, 45%, 55%);stop-opacity:1" />
      <stop offset="100%" style="stop-color:hsl(195, 45%, 35%);stop-opacity:1" />
    </linearGradient>
  </defs>
  
  <!-- 圆角矩形背景 -->
  <rect width="32" height="32" rx="8" ry="8" fill="url(#gradient)" />
  
  <!-- Lucide Dumbbell 图标 -->
  <g transform="translate(4, 4)" stroke="white" stroke-width="2" stroke-linecap="round" stroke-linejoin="round" fill="none">
    <path d="M14.4 14.4 9.6 9.6"></path>
    <path d="M18.657 21.485a2 2 0 1 1-2.829-2.828l-1.767 1.768a2 2 0 1 1-2.829-2.829l6.364-6.364a2 2 0 1 1 2.829 2.829l-1.768 1.767a2 2 0 1 1 2.828 2.829z"></path>
    <path d="m21.5 21.5-1.4-1.4"></path>
    <path d="M3.9 3.9 2.5 2.5"></path>
    <path d="M6.404 12.768a2 2 0 1 1-2.829-2.829l1.768-1.767a2 2 0 1 1-2.828-2.829l2.828-2.828a2 2 0 1 1 2.829 2.828l1.767-1.768a2 2 0 1 1 2.829 2.829z"></path>
  </g>
</svg>
